<svg xmlns="http://www.w3.org/2000/svg" data-name="Layer 1" viewBox="0 0 128 128"><circle cx="64" cy="64" r="63" fill="#b6e5ff"/><path fill="#b6e5ff" d="M46 94a9.94 9.94 0 00-4.29 1A16 16 0 0010 98c0 .09 0 .18 0 .26A8 8 0 108 114H46a10 10 0 000-20zM117 18a9.94 9.94 0 00-4.29 1A16 16 0 0081 22c0 .09 0 .18 0 .26A8 8 0 1079 38h38a10 10 0 000-20z"/><path fill="#eefaff" d="M117 13a9.94 9.94 0 00-4.29 1A16 16 0 0081 17c0 .09 0 .18 0 .26A8 8 0 1079 33h38a10 10 0 000-20zM46 89a9.94 9.94 0 00-4.29 1A16 16 0 0010 93c0 .09 0 .18 0 .26A8 8 0 108 109H46a10 10 0 000-20z"/><line x1="113" x2="123" y1="5" y2="5" fill="none" stroke="#b6e5ff" stroke-miterlimit="10" stroke-width="2"/><line x1="118" x2="118" y1="10" fill="none" stroke="#b6e5ff" stroke-miterlimit="10" stroke-width="2"/><path fill="none" stroke="#fff" stroke-linecap="square" stroke-miterlimit="10" stroke-width="2" d="M110.12,95.88A3,3,0,0,0,105,98h0a3,3,0,0,0-5.12-2.12A2.86,2.86,0,0,0,100,100l5,6,5-6A2.86,2.86,0,0,0,110.12,95.88Z"/><circle cx="28" cy="14" r="5" fill="none" stroke="#fff" stroke-linecap="square" stroke-miterlimit="10" stroke-width="2"/><line x1="72.38" x2="3.62" y1="73.42" y2="36.58" fill="none" stroke="#bc9e80" stroke-linecap="round" stroke-miterlimit="10" stroke-width="4"/><line x1="47.85" x2="56.35" y1="70.49" y2="54.62" fill="none" stroke="#9a9c49" stroke-linecap="round" stroke-miterlimit="10" stroke-width="4"/><line x1="44.33" x2="52.83" y1="68.6" y2="52.73" fill="none" stroke="#ce251d" stroke-linecap="round" stroke-miterlimit="10" stroke-width="4"/><line x1="40.8" x2="49.3" y1="66.71" y2="50.85" fill="none" stroke="#f2b120" stroke-linecap="round" stroke-miterlimit="10" stroke-width="4"/><line x1="12.59" x2="21.1" y1="51.6" y2="35.73" fill="none" stroke="#ce251d" stroke-linecap="round" stroke-miterlimit="10" stroke-width="4"/><line x1="9.07" x2="17.57" y1="49.71" y2="33.84" fill="none" stroke="#f2b120" stroke-linecap="round" stroke-miterlimit="10" stroke-width="4"/><line x1="26.7" x2="35.2" y1="59.15" y2="43.29" fill="none" stroke="#a068c1" stroke-linecap="round" stroke-miterlimit="10" stroke-width="4"/><rect width="8" height="18" x="55.15" y="57.34" fill="#ad583a" rx="2" ry="2" transform="rotate(-151.82 59.15 66.34)"/><rect width="8" height="18" x="55.15" y="57.34" fill="none" stroke="#72301e" stroke-linecap="round" stroke-miterlimit="10" stroke-width="4" rx="2" ry="2" transform="rotate(-151.82 59.15 66.34)"/><rect width="8" height="18" x="34" y="46" fill="#ad583a" rx="2" ry="2" transform="rotate(-151.82 38 55.002)"/><rect width="8" height="18" x="34" y="46" fill="none" stroke="#72301e" stroke-linecap="round" stroke-miterlimit="10" stroke-width="4" rx="2" ry="2" transform="rotate(-151.82 38 55.002)"/><rect width="8" height="18" x="19.9" y="38.44" fill="#ad583a" rx="2" ry="2" transform="rotate(-151.82 23.894 47.445)"/><rect width="8" height="18" x="19.9" y="38.44" fill="none" stroke="#72301e" stroke-linecap="round" stroke-miterlimit="10" stroke-width="4" rx="2" ry="2" transform="rotate(-151.82 23.894 47.445)"/><path fill="#e61010" d="M84.86,17.36S39.34,5.67,33.62,27.95l-1,3.87L78.14,43.51l45.52,11.69,1-3.87C130.38,29.05,84.86,17.36,84.86,17.36Z"/><path fill="#ff5f63" d="M84.35,17.49l0-.27-1.51-.34-.08,0,0,0c-9-2-44.16-8.33-49.14,11.07l-1,3.87,9.72,2.5c4.44-13.75,24.95-13.61,38.55-11.88a6,6,0,0,1,5.21,6.31A66.86,66.86,0,0,1,84,40.88l-1,3.87,11.62,3,1-3.87C100.05,26.54,89.34,19.69,84.35,17.49Z"/><rect width="98" height="8" x="28.4" y="42.42" fill="#e61010" rx="4" ry="4" transform="rotate(14.41 77.391 46.393)"/><path fill="#ff5f63" d="M34.81,31.35a4,4,0,0,0-2,7.75l7.75,2a8,8,0,0,0,9.74-5.76Z"/><rect width="98" height="8" x="28.4" y="42.42" fill="none" stroke="#ba1515" stroke-miterlimit="10" stroke-width="4" rx="4" ry="4" transform="rotate(14.41 77.391 46.393)"/><line x1="35.83" x2="124.94" y1="23.35" y2="46.24" fill="none" stroke="#ba1515" stroke-miterlimit="10" stroke-width="4"/><path fill="none" stroke="#a5b2bf" stroke-linecap="round" stroke-linejoin="round" stroke-width="4" d="M78.55 5.42A14 14 0 0076.42 10l-.75 2.91c-2.95-.5-5.46-.22-8.13-.49M102.41 21.4c-2.47-1.05-4.54-2.5-7.36-3.49L95.79 15a14 14 0 00.35-5.07"/><path fill="none" stroke="#7a5e4b" stroke-linecap="round" stroke-miterlimit="10" stroke-width="6" d="M103.57,12.87s-1.72-2.51-3.38-2.93L87.6,6.71,75,3.47c-1.66-.43-4.37.94-4.37.94"/><ellipse cx="64.22" cy="21.35" fill="#a5b2bf" rx="2" ry="9" transform="rotate(-84.12 64.221 21.354)"/><path fill="none" stroke="#ba1515" stroke-miterlimit="10" stroke-width="4" d="M84.86,17.36S39.34,5.67,33.62,27.95l-1,3.87L78.14,43.51l45.52,11.69,1-3.87C130.38,29.05,84.86,17.36,84.86,17.36Z"/><path fill="#ededed" d="M30.44,70.91a15.35,15.35,0,0,0,3.83,14.26L56,58,67.45,32.45a12.41,12.41,0,0,0-8.41.49h-.71a12,12,0,0,0-22.78,6.58,16.43,16.43,0,0,0-5,10.46c-.19,0-.38,0-.57,0a10.5,10.5,0,1,0,0,21C30.11,70.94,30.27,70.91,30.44,70.91Z" opacity=".9"/><path fill="none" stroke="#c1c1c1" stroke-linecap="round" stroke-linejoin="round" stroke-width="4" d="M30.44 49.78a16.43 16.43 0 014.73-10M58.93 33a12.54 12.54 0 019.8-.1M40.23 62.56A10.5 10.5 0 1134.3 50.88M39 46.42A12 12 0 1155.33 47"/><path fill="#ededed" d="M107,59.5A14.49,14.49,0,0,0,86.68,46.22a8.47,8.47,0,0,0-10.9-5.77,12.53,12.53,0,0,0-8.1-7.94L35.38,86.22A15.47,15.47,0,0,0,50,89.32a8.5,8.5,0,0,0,16.8.77,19.48,19.48,0,0,0,33.83-18.62A14.48,14.48,0,0,0,107,59.5Z" opacity=".9"/><path fill="none" stroke="#c1c1c1" stroke-linecap="round" stroke-linejoin="round" stroke-width="4" d="M71.44 54.44a12.5 12.5 0 00.18-19.87M75.88 40.41a8.5 8.5 0 017.73 14.88M87 46.08A14.5 14.5 0 1192.5 74M67 88.5a8.5 8.5 0 11-11.87-7.81M100.82 71.8A19.5 19.5 0 0167 90.31"/><line x1="64" x2="64" y1="103" y2="124" fill="none" stroke="#a5b2bf" stroke-linecap="round" stroke-linejoin="round" stroke-width="4"/><line x1="64" x2="64" y1="106" y2="115" fill="none" stroke="#171a1e" stroke-linecap="round" stroke-linejoin="round" stroke-width="8"/><path fill="#2f3038" d="M64,65H17s0,45,47,45,47-45,47-45Z"/><path fill="#5b5d68" d="M68 101c2 0 5.17-1.64 7.58-6.82C81 81.22 81 65 81 65H69s0 16.81-2.63 29.88C66.37 94.9 66 101 68 101zM36.63 93.47h0C27 80.63 27 65 27 65H17s0 24.32 18.68 37.21C41.16 99 36.63 93.47 36.63 93.47z"/><path fill="#23282d" d="M64,73h46.09a47.11,47.11,0,0,0,.91-8H17a47.12,47.12,0,0,0,.91,8Z"/><path fill="none" stroke="#171a1e" stroke-linejoin="round" stroke-width="4" d="M17,65s0,45,47,45,47-45,47-45H17Z"/><path fill="none" stroke="#a5b2bf" stroke-linecap="round" stroke-linejoin="round" stroke-width="4" d="M52.61,113a65.41,65.41,0,0,0,22.79,0Z"/><line x1="71" x2="95.29" y1="114" y2="118.55" fill="none" stroke="#a5b2bf" stroke-linecap="round" stroke-linejoin="round" stroke-width="4"/><line x1="95.29" x2="103" y1="118.55" y2="120" fill="none" stroke="#7a5e4b" stroke-linecap="round" stroke-miterlimit="10" stroke-width="6"/><circle cx="5" cy="71" r="5" fill="#7a5e4b"/><path fill="none" stroke="#171a1e" stroke-linecap="round" stroke-linejoin="round" stroke-width="4" d="M26,77s-5,0-7-1.5A24.17,24.17,0,0,0,5,71"/><circle cx="123" cy="71" r="5" fill="#7a5e4b"/><path fill="none" stroke="#171a1e" stroke-linecap="round" stroke-linejoin="round" stroke-width="4" d="M102,77s5,0,7-1.5A24.17,24.17,0,0,1,123,71"/><line x1="46" x2="38.06" y1="108" y2="124" fill="none" stroke="#a5b2bf" stroke-linecap="round" stroke-linejoin="round" stroke-width="4"/><line x1="86.94" x2="82" y1="124" y2="108" fill="none" stroke="#a5b2bf" stroke-linecap="round" stroke-linejoin="round" stroke-width="4"/><line x1="47" x2="44.34" y1="106" y2="112" fill="none" stroke="#171a1e" stroke-linecap="round" stroke-linejoin="round" stroke-width="8"/><line x1="83.66" x2="81" y1="112" y2="106" fill="none" stroke="#171a1e" stroke-linecap="round" stroke-linejoin="round" stroke-width="8"/><line x1="25.42" x2="80.58" y1="78.58" y2="23.42" fill="none" stroke="#bc9e80" stroke-linecap="round" stroke-miterlimit="10" stroke-width="4"/><line x1="35.32" x2="48.05" y1="55.95" y2="68.68" fill="none" stroke="#9a9c49" stroke-linecap="round" stroke-miterlimit="10" stroke-width="4"/><line x1="38.15" x2="50.88" y1="53.12" y2="65.85" fill="none" stroke="#ce251d" stroke-linecap="round" stroke-miterlimit="10" stroke-width="4"/><line x1="40.98" x2="53.71" y1="50.29" y2="63.02" fill="none" stroke="#f2b120" stroke-linecap="round" stroke-miterlimit="10" stroke-width="4"/><line x1="63.61" x2="76.33" y1="27.67" y2="40.39" fill="none" stroke="#ce251d" stroke-linecap="round" stroke-miterlimit="10" stroke-width="4"/><line x1="66.44" x2="79.16" y1="24.84" y2="37.56" fill="none" stroke="#f2b120" stroke-linecap="round" stroke-miterlimit="10" stroke-width="4"/><line x1="52.29" x2="65.02" y1="38.98" y2="51.71" fill="none" stroke="#a068c1" stroke-linecap="round" stroke-miterlimit="10" stroke-width="4"/><rect width="8" height="18" x="32.03" y="58.97" fill="#ad583a" rx="2" ry="2" transform="rotate(-45 36.024 67.969)"/><rect width="8" height="18" x="32.03" y="58.97" fill="none" stroke="#72301e" stroke-linecap="round" stroke-miterlimit="10" stroke-width="4" rx="2" ry="2" transform="rotate(-45 36.024 67.969)"/><rect width="8" height="18" x="49" y="42" fill="#ad583a" rx="2" ry="2" transform="rotate(-45 52.994 50.999)"/><rect width="8" height="18" x="49" y="42" fill="none" stroke="#72301e" stroke-linecap="round" stroke-miterlimit="10" stroke-width="4" rx="2" ry="2" transform="rotate(-45 52.994 50.999)"/><rect width="8" height="18" x="60.31" y="30.69" fill="#ad583a" rx="2" ry="2" transform="rotate(-45 64.31 39.692)"/><rect width="8" height="18" x="60.31" y="30.69" fill="none" stroke="#72301e" stroke-linecap="round" stroke-miterlimit="10" stroke-width="4" rx="2" ry="2" transform="rotate(-45 64.31 39.692)"/><line x1="99" x2="17" y1="126" y2="126" fill="none" stroke="#799293" stroke-linecap="round" stroke-miterlimit="10" stroke-width="4"/><line x1="119" x2="110" y1="126" y2="126" fill="none" stroke="#799293" stroke-linecap="round" stroke-miterlimit="10" stroke-width="4"/></svg>