<svg xmlns="http://www.w3.org/2000/svg" width="100" height="100" enable-background="new 0 0 100 100" viewBox="0 0 100 100"><path d="M90.666,66.458h-0.884C88.825,47.2,74.125,31.51,55.313,28.99c0.252-0.643,0.395-1.341,0.395-2.073
		c0-3.147-2.561-5.708-5.708-5.708s-5.708,2.561-5.708,5.708c0,0.732,0.143,1.429,0.395,2.073
		C25.875,31.51,11.175,47.2,10.218,66.458H9.333c-3.4,0-6.167,2.767-6.167,6.167s2.767,6.167,6.167,6.167h81.333
		c3.4,0,6.167-2.767,6.167-6.167S94.066,66.458,90.666,66.458z M50,25.209c0.941,0,1.708,0.766,1.708,1.708S50.941,28.625,50,28.625
		c-0.942,0-1.708-0.766-1.708-1.708S49.058,25.209,50,25.209z M50,32.625c19.087,0,34.733,15.002,35.774,33.833H14.226
		C15.267,47.627,30.913,32.625,50,32.625z M90.666,74.792H9.333c-1.195,0-2.167-0.972-2.167-2.167s0.972-2.167,2.167-2.167h81.333
		c1.195,0,2.167,0.972,2.167,2.167S91.861,74.792,90.666,74.792z"/><path d="M77.458,56.988c-3.038-7.264-8.963-13.131-16.254-16.098c-1.025-0.418-2.19,0.076-2.606,1.099s0.076,2.19,1.099,2.606
		c6.313,2.568,11.441,7.647,14.072,13.936c0.32,0.768,1.063,1.229,1.846,1.229c0.257,0,0.519-0.051,0.771-0.156
		C77.404,59.179,77.885,58.007,77.458,56.988z"/></svg>