<svg xmlns="http://www.w3.org/2000/svg" enable-background="new 0 0 64 64" viewBox="0 0 64 64"><path fill="#2b2f64" d="M31.8,17.1c-8.1,0-14.7,6.6-14.7,14.7s6.6,14.7,14.7,14.7c8.1,0,14.7-6.6,14.7-14.7S39.9,17.1,31.8,17.1z
		 M31.8,44.6c-7.1,0-12.8-5.7-12.8-12.8S24.8,19,31.8,19c7.1,0,12.8,5.7,12.8,12.8S38.9,44.6,31.8,44.6z"/><path fill="#2b2f64" d="M31.8 11.3c-11.3 0-20.5 9.2-20.5 20.5 0 11.3 9.2 20.5 20.5 20.5 11.3 0 20.5-9.2 20.5-20.5C52.4 20.5 43.1 11.3 31.8 11.3zM31.8 50.4c-10.3 0-18.6-8.3-18.6-18.6s8.3-18.6 18.6-18.6c10.3 0 18.6 8.3 18.6 18.6S42.1 50.4 31.8 50.4zM64 19L63.8 7.8c0-.5-.4-1-1-1-.5 0-1 .5-1 1L62 18.1h-1.2L60.8 7.8c0-.5-.4-1-1-1 0 0 0 0 0 0-.5 0-1 .4-1 1l.1 10.3h-1.4l.1-10.3c0-.5-.4-1-1-1 0 0 0 0 0 0-.5 0-1 .4-1 1l-.1 10.3h-1.2l.2-10.2c0-.5-.4-1-1-1-.5 0-1 .4-1 1L52.4 19c0 0 0 0 0 0 0 0 0 0 0 0v3c0 .7.2 1.3.7 1.8h0l1.8 2.1c.1.2.2.4.2.6l-.9 26.3c0 1.1.4 2.3 1.2 3.1.7.8 1.7 1.2 2.8 1.2 1.1 0 2.1-.4 2.8-1.2.8-.8 1.2-1.9 1.2-3.1l-.9-26.3c0-.2.1-.4.2-.6l1.8-2.1c.4-.5.7-1.1.7-1.8V19C64 19 64 19 64 19 64 19 64 19 64 19zM62.1 22.1c0 .2-.1.4-.2.5L60 24.7c-.5.5-.7 1.2-.7 1.9l.9 26.3c0 .6-.2 1.2-.6 1.7-.8.8-2.1.8-2.8 0-.4-.4-.6-1-.6-1.7l.9-26.3c0-.7-.2-1.4-.7-1.9l-1.8-2.1c-.1-.2-.2-.3-.2-.5v-2h2.2 0 3.3 0 2.2V22.1zM2.3 7C2 6.8 1.7 6.8 1.4 7 1.1 7.2.9 7.5.9 7.8v28.8L0 53.1c-.1 1.1.3 2.1 1.1 2.9.7.8 1.7 1.2 2.8 1.2 1.1 0 2.1-.4 2.8-1.2.7-.8 1.1-1.8 1.1-2.9L6.9 37.6h.6c.5 0 .9-.4 1-.9C11.4 12 2.7 7.1 2.3 7zM5.3 54.6c-.7.8-2.1.8-2.8 0-.4-.4-.6-.9-.5-1.4l.9-15.6h2.1l.9 15.6C5.8 53.7 5.6 54.2 5.3 54.6zM6.6 35.6H5.9h-3V10C4.9 12.5 8.4 19.2 6.6 35.6z"/></svg>